M48
INCH,TZ
T10C0.016
T11C0.040
T12C0.039
%
T10
X040700Y-41675
X040750Y-44250
X040850Y-47250
X040850Y-48000
X040850Y-48750
X040850Y-49500
X041200Y-46150
X041200Y-52700
X041500Y-44250
X041500Y-45000
X041500Y-50850
X042150Y-53300
X042300Y-41675
X042500Y-45375
X042850Y-50850
X043000Y-52700
X043450Y-53100
X043800Y-44350
X043850Y-46550
X043900Y-45650
X044000Y-47250
X044000Y-48000
X044000Y-48750
X044000Y-49500
X044748Y-44350
X044750Y-50100
X044950Y-53500
X045150Y-44350
X045250Y-43250
X045250Y-49150
X045496Y-45509
X045599Y-47098
X045750Y-46500
X045750Y-51250
X046100Y-53500
X046250Y-45000
X046250Y-50100
X046613Y-52812
X047000Y-41850
X047150Y-50850
X047250Y-46501
X047750Y-44800
X047750Y-45250
X047750Y-49175
X047800Y-46500
X047800Y-53300
X048250Y-48250
X048450Y-50850
X048747Y-47996
X048750Y-49750
X049000Y-45250
X049250Y-44775
X049250Y-45500
X050250Y-44750
X050325Y-42400
X050496Y-45500
X050517Y-48002
T11
X040000Y-46500
X040000Y-47500
X040000Y-48500
X040000Y-49500
X040000Y-50500
X040000Y-51500
X040000Y-52500
X040000Y-53500
X043000Y-55500
X044000Y-55500
X045000Y-55500
X046000Y-55500
X050000Y-46500
X050000Y-47500
X050000Y-48500
X050000Y-49500
X050000Y-50500
X050000Y-51500
X050000Y-52500
X050000Y-53500
T12
X046000Y-42100
X046000Y-42900
X048000Y-42500
M30

