G04 #@! TF.FileFunction,Soldermask,Top*
%FSLAX46Y46*%
G04 Gerber Fmt 4.6, Leading zero omitted, Abs format (unit mm)*
G04 Created by KiCad (PCBNEW 4.0.2+dfsg1-stable) date So 05 Jun 2016 12:59:14 CEST*
%MOMM*%
G01*
G04 APERTURE LIST*
%ADD10C,0.100000*%
%ADD11C,2.540000*%
%ADD12R,0.600000X1.000000*%
%ADD13R,0.850000X0.900000*%
%ADD14R,0.900000X0.850000*%
%ADD15R,0.897560X0.897560*%
%ADD16R,1.827200X2.132000*%
%ADD17O,1.827200X2.132000*%
%ADD18R,2.132000X1.827200*%
%ADD19O,2.132000X1.827200*%
%ADD20R,1.000000X1.800000*%
%ADD21R,1.000000X0.600000*%
%ADD22R,1.400000X0.800000*%
%ADD23R,1.300000X0.700000*%
%ADD24R,0.700000X1.300000*%
%ADD25R,1.100760X1.601140*%
%ADD26R,2.098980X3.099740*%
%ADD27R,0.700000X1.650000*%
%ADD28C,1.090600*%
%ADD29C,0.887400*%
%ADD30R,2.500000X2.000000*%
%ADD31O,0.700000X0.500000*%
%ADD32R,1.600000X2.500000*%
G04 APERTURE END LIST*
D10*
D11*
X127000000Y-142000000D03*
D12*
X104660000Y-112395000D03*
X106160000Y-112395000D03*
D13*
X112395000Y-118225000D03*
X112395000Y-116725000D03*
D14*
X106160000Y-116205000D03*
X104660000Y-116205000D03*
X106160000Y-118110000D03*
X104660000Y-118110000D03*
D13*
X112395000Y-113550000D03*
X112395000Y-115050000D03*
D14*
X104660000Y-108966000D03*
X106160000Y-108966000D03*
X111875000Y-128905000D03*
X110375000Y-128905000D03*
D13*
X106045000Y-133870000D03*
X106045000Y-135370000D03*
X120418860Y-133870000D03*
X120418860Y-135370000D03*
D14*
X111875000Y-133985000D03*
X110375000Y-133985000D03*
D13*
X122323860Y-133870000D03*
X122323860Y-135370000D03*
X107950000Y-133870000D03*
X107950000Y-135370000D03*
D15*
X114185700Y-123825000D03*
X115684300Y-123825000D03*
X117360700Y-123825000D03*
X118859300Y-123825000D03*
X120535700Y-123825000D03*
X122034300Y-123825000D03*
D16*
X109220000Y-140970000D03*
D17*
X111760000Y-140970000D03*
X114300000Y-140970000D03*
X116840000Y-140970000D03*
D18*
X101600000Y-135890000D03*
D19*
X101600000Y-133350000D03*
X101600000Y-130810000D03*
X101600000Y-128270000D03*
X101600000Y-125730000D03*
X101600000Y-123190000D03*
X101600000Y-120650000D03*
X101600000Y-118110000D03*
D18*
X127000000Y-135890000D03*
D19*
X127000000Y-133350000D03*
X127000000Y-130810000D03*
X127000000Y-128270000D03*
X127000000Y-125730000D03*
X127000000Y-123190000D03*
X127000000Y-120650000D03*
X127000000Y-118110000D03*
D20*
X124915000Y-109220000D03*
X127815000Y-109220000D03*
D21*
X112395000Y-111875000D03*
X112395000Y-110375000D03*
X125730000Y-112510000D03*
X125730000Y-111010000D03*
X127635000Y-111010000D03*
X127635000Y-112510000D03*
D12*
X112510000Y-125730000D03*
X111010000Y-125730000D03*
X106160000Y-125730000D03*
X104660000Y-125730000D03*
X109335000Y-125730000D03*
X107835000Y-125730000D03*
X112510000Y-123825000D03*
X111010000Y-123825000D03*
X106160000Y-123825000D03*
X104660000Y-123825000D03*
X109335000Y-123825000D03*
X107835000Y-123825000D03*
X112510000Y-121920000D03*
X111010000Y-121920000D03*
X106160000Y-121920000D03*
X104660000Y-121920000D03*
X109335000Y-121920000D03*
X107835000Y-121920000D03*
X112510000Y-120015000D03*
X111010000Y-120015000D03*
X106160000Y-120015000D03*
X104660000Y-120015000D03*
X104660000Y-114300000D03*
X106160000Y-114300000D03*
X109335000Y-120015000D03*
X107835000Y-120015000D03*
D22*
X111125000Y-130495000D03*
X111125000Y-132395000D03*
D23*
X114495000Y-114040000D03*
X114495000Y-114840000D03*
X114495000Y-115640000D03*
X114495000Y-116440000D03*
X114495000Y-117240000D03*
X114495000Y-118040000D03*
X114495000Y-118840000D03*
X114495000Y-119640000D03*
D24*
X115945000Y-121090000D03*
X116745000Y-121090000D03*
X117545000Y-121090000D03*
X118345000Y-121090000D03*
X119145000Y-121090000D03*
X119945000Y-121090000D03*
X120745000Y-121090000D03*
X121545000Y-121090000D03*
D23*
X122995000Y-119640000D03*
X122995000Y-118840000D03*
X122995000Y-118040000D03*
X122995000Y-117240000D03*
X122995000Y-116440000D03*
X122995000Y-115640000D03*
X122995000Y-114840000D03*
X122995000Y-114040000D03*
D24*
X121545000Y-112590000D03*
X120745000Y-112590000D03*
X119945000Y-112590000D03*
X119145000Y-112590000D03*
X118345000Y-112590000D03*
X117545000Y-112590000D03*
X116745000Y-112590000D03*
X115945000Y-112590000D03*
D25*
X119956580Y-132080000D03*
X121457720Y-132080000D03*
X122958860Y-132080000D03*
D26*
X121457720Y-129128520D03*
D10*
G36*
X122508480Y-130552990D02*
X122008100Y-131402290D01*
X120907340Y-131402290D01*
X120406960Y-130552990D01*
X122508480Y-130552990D01*
X122508480Y-130552990D01*
G37*
D25*
X105582720Y-132080000D03*
X107083860Y-132080000D03*
X108585000Y-132080000D03*
D26*
X107083860Y-129128520D03*
D10*
G36*
X108134620Y-130552990D02*
X107634240Y-131402290D01*
X106533480Y-131402290D01*
X106033100Y-130552990D01*
X108134620Y-130552990D01*
X108134620Y-130552990D01*
G37*
D27*
X117475000Y-128745000D03*
X116205000Y-128745000D03*
X114935000Y-128745000D03*
X113665000Y-128745000D03*
X113665000Y-134145000D03*
X114935000Y-134145000D03*
X116205000Y-134145000D03*
X117475000Y-134145000D03*
D28*
X116840000Y-108966000D03*
X116840000Y-106934000D03*
D29*
X118110000Y-107315000D03*
X119380000Y-107315000D03*
X120650000Y-107315000D03*
X118110000Y-108585000D03*
X120650000Y-108585000D03*
X119380000Y-108585000D03*
D28*
X121920000Y-107950000D03*
D30*
X109220000Y-117620000D03*
X109220000Y-113520000D03*
D13*
X123825000Y-123710000D03*
X123825000Y-125210000D03*
D12*
X115685000Y-125730000D03*
X114185000Y-125730000D03*
X118860000Y-125730000D03*
X117360000Y-125730000D03*
X122035000Y-125730000D03*
X120535000Y-125730000D03*
D31*
X106810000Y-105426000D03*
X106810000Y-106426000D03*
X106810000Y-107426000D03*
X104010000Y-105426000D03*
X104010000Y-106426000D03*
X104010000Y-107426000D03*
D32*
X105410000Y-106426000D03*
D11*
X111500000Y-107000000D03*
M02*
