G04 #@! TF.FileFunction,Legend,Top*
%FSLAX46Y46*%
G04 Gerber Fmt 4.6, Leading zero omitted, Abs format (unit mm)*
G04 Created by KiCad (PCBNEW 4.0.2+dfsg1-stable) date So 05 Jun 2016 12:59:14 CEST*
%MOMM*%
G01*
G04 APERTURE LIST*
%ADD10C,0.100000*%
%ADD11C,0.150000*%
G04 APERTURE END LIST*
D10*
D11*
X105910000Y-113070000D02*
X104910000Y-113070000D01*
X104910000Y-111720000D02*
X105910000Y-111720000D01*
X111795000Y-117825000D02*
X111795000Y-117125000D01*
X112995000Y-117125000D02*
X112995000Y-117825000D01*
X105760000Y-116805000D02*
X105060000Y-116805000D01*
X105060000Y-115605000D02*
X105760000Y-115605000D01*
X105760000Y-118710000D02*
X105060000Y-118710000D01*
X105060000Y-117510000D02*
X105760000Y-117510000D01*
X112995000Y-113950000D02*
X112995000Y-114650000D01*
X111795000Y-114650000D02*
X111795000Y-113950000D01*
X105060000Y-108366000D02*
X105760000Y-108366000D01*
X105760000Y-109566000D02*
X105060000Y-109566000D01*
X111475000Y-129505000D02*
X110775000Y-129505000D01*
X110775000Y-128305000D02*
X111475000Y-128305000D01*
X106645000Y-134270000D02*
X106645000Y-134970000D01*
X105445000Y-134970000D02*
X105445000Y-134270000D01*
X121018860Y-134270000D02*
X121018860Y-134970000D01*
X119818860Y-134970000D02*
X119818860Y-134270000D01*
X111475000Y-134585000D02*
X110775000Y-134585000D01*
X110775000Y-133385000D02*
X111475000Y-133385000D01*
X122923860Y-134270000D02*
X122923860Y-134970000D01*
X121723860Y-134970000D02*
X121723860Y-134270000D01*
X108550000Y-134270000D02*
X108550000Y-134970000D01*
X107350000Y-134970000D02*
X107350000Y-134270000D01*
X116035000Y-123275000D02*
X114135000Y-123275000D01*
X116035000Y-124375000D02*
X114135000Y-124375000D01*
X115135000Y-123825000D02*
X114685000Y-123825000D01*
X115185000Y-124075000D02*
X115185000Y-123575000D01*
X115185000Y-123825000D02*
X114935000Y-124075000D01*
X114935000Y-124075000D02*
X114935000Y-123575000D01*
X114935000Y-123575000D02*
X115185000Y-123825000D01*
X119210000Y-123275000D02*
X117310000Y-123275000D01*
X119210000Y-124375000D02*
X117310000Y-124375000D01*
X118310000Y-123825000D02*
X117860000Y-123825000D01*
X118360000Y-124075000D02*
X118360000Y-123575000D01*
X118360000Y-123825000D02*
X118110000Y-124075000D01*
X118110000Y-124075000D02*
X118110000Y-123575000D01*
X118110000Y-123575000D02*
X118360000Y-123825000D01*
X122385000Y-123275000D02*
X120485000Y-123275000D01*
X122385000Y-124375000D02*
X120485000Y-124375000D01*
X121485000Y-123825000D02*
X121035000Y-123825000D01*
X121535000Y-124075000D02*
X121535000Y-123575000D01*
X121535000Y-123825000D02*
X121285000Y-124075000D01*
X121285000Y-124075000D02*
X121285000Y-123575000D01*
X121285000Y-123575000D02*
X121535000Y-123825000D01*
X110490000Y-142240000D02*
X118110000Y-142240000D01*
X110490000Y-139700000D02*
X118110000Y-139700000D01*
X107670000Y-139420000D02*
X109220000Y-139420000D01*
X118110000Y-142240000D02*
X118110000Y-139700000D01*
X110490000Y-139700000D02*
X110490000Y-142240000D01*
X109220000Y-142520000D02*
X107670000Y-142520000D01*
X107670000Y-142520000D02*
X107670000Y-139420000D01*
X100330000Y-134620000D02*
X100330000Y-116840000D01*
X100330000Y-116840000D02*
X102870000Y-116840000D01*
X102870000Y-116840000D02*
X102870000Y-134620000D01*
X100050000Y-137440000D02*
X100050000Y-135890000D01*
X100330000Y-134620000D02*
X102870000Y-134620000D01*
X103150000Y-135890000D02*
X103150000Y-137440000D01*
X103150000Y-137440000D02*
X100050000Y-137440000D01*
X125730000Y-134620000D02*
X125730000Y-116840000D01*
X125730000Y-116840000D02*
X128270000Y-116840000D01*
X128270000Y-116840000D02*
X128270000Y-134620000D01*
X125450000Y-137440000D02*
X125450000Y-135890000D01*
X125730000Y-134620000D02*
X128270000Y-134620000D01*
X128550000Y-135890000D02*
X128550000Y-137440000D01*
X128550000Y-137440000D02*
X125450000Y-137440000D01*
X127365000Y-110295000D02*
X125365000Y-110295000D01*
X125365000Y-108145000D02*
X127365000Y-108145000D01*
X113070000Y-110625000D02*
X113070000Y-111625000D01*
X111720000Y-111625000D02*
X111720000Y-110625000D01*
X126405000Y-111260000D02*
X126405000Y-112260000D01*
X125055000Y-112260000D02*
X125055000Y-111260000D01*
X126960000Y-112260000D02*
X126960000Y-111260000D01*
X128310000Y-111260000D02*
X128310000Y-112260000D01*
X111260000Y-125055000D02*
X112260000Y-125055000D01*
X112260000Y-126405000D02*
X111260000Y-126405000D01*
X104910000Y-125055000D02*
X105910000Y-125055000D01*
X105910000Y-126405000D02*
X104910000Y-126405000D01*
X108085000Y-125055000D02*
X109085000Y-125055000D01*
X109085000Y-126405000D02*
X108085000Y-126405000D01*
X111260000Y-123150000D02*
X112260000Y-123150000D01*
X112260000Y-124500000D02*
X111260000Y-124500000D01*
X104910000Y-123150000D02*
X105910000Y-123150000D01*
X105910000Y-124500000D02*
X104910000Y-124500000D01*
X108085000Y-123150000D02*
X109085000Y-123150000D01*
X109085000Y-124500000D02*
X108085000Y-124500000D01*
X111260000Y-121245000D02*
X112260000Y-121245000D01*
X112260000Y-122595000D02*
X111260000Y-122595000D01*
X104910000Y-121245000D02*
X105910000Y-121245000D01*
X105910000Y-122595000D02*
X104910000Y-122595000D01*
X108085000Y-121245000D02*
X109085000Y-121245000D01*
X109085000Y-122595000D02*
X108085000Y-122595000D01*
X111260000Y-119340000D02*
X112260000Y-119340000D01*
X112260000Y-120690000D02*
X111260000Y-120690000D01*
X104910000Y-119340000D02*
X105910000Y-119340000D01*
X105910000Y-120690000D02*
X104910000Y-120690000D01*
X105910000Y-114975000D02*
X104910000Y-114975000D01*
X104910000Y-113625000D02*
X105910000Y-113625000D01*
X108085000Y-119340000D02*
X109085000Y-119340000D01*
X109085000Y-120690000D02*
X108085000Y-120690000D01*
X110250000Y-132045000D02*
X110250000Y-130845000D01*
X112000000Y-130845000D02*
X112000000Y-132045000D01*
X115120000Y-113215000D02*
X115120000Y-113515000D01*
X122370000Y-113215000D02*
X122370000Y-113515000D01*
X122370000Y-120465000D02*
X122370000Y-120165000D01*
X115120000Y-120465000D02*
X115120000Y-120165000D01*
X115120000Y-113215000D02*
X115420000Y-113215000D01*
X115120000Y-120465000D02*
X115420000Y-120465000D01*
X122370000Y-120465000D02*
X122070000Y-120465000D01*
X122370000Y-113215000D02*
X122070000Y-113215000D01*
X115120000Y-113515000D02*
X113895000Y-113515000D01*
X119557800Y-130429000D02*
X119806720Y-130129280D01*
X119806720Y-130129280D02*
X119908320Y-129979420D01*
X119908320Y-129979420D02*
X119908320Y-130827780D01*
X119207280Y-128927860D02*
X119207280Y-130728720D01*
X119207280Y-128927860D02*
X119857520Y-128927860D01*
X123708160Y-128927860D02*
X123708160Y-130728720D01*
X123708160Y-128927860D02*
X123057920Y-128927860D01*
X105183940Y-130429000D02*
X105432860Y-130129280D01*
X105432860Y-130129280D02*
X105534460Y-129979420D01*
X105534460Y-129979420D02*
X105534460Y-130827780D01*
X104833420Y-128927860D02*
X104833420Y-130728720D01*
X104833420Y-128927860D02*
X105483660Y-128927860D01*
X109334300Y-128927860D02*
X109334300Y-130728720D01*
X109334300Y-128927860D02*
X108684060Y-128927860D01*
X118145000Y-129370000D02*
X118000000Y-129370000D01*
X118145000Y-133520000D02*
X118000000Y-133520000D01*
X112995000Y-133520000D02*
X113140000Y-133520000D01*
X112995000Y-129370000D02*
X113140000Y-129370000D01*
X118145000Y-129370000D02*
X118145000Y-133520000D01*
X112995000Y-129370000D02*
X112995000Y-133520000D01*
X118000000Y-129370000D02*
X118000000Y-127970000D01*
X107520000Y-118170000D02*
X107820000Y-118170000D01*
X107520000Y-112970000D02*
X107820000Y-112970000D01*
X110920000Y-112970000D02*
X110620000Y-112970000D01*
X110920000Y-118170000D02*
X110620000Y-118170000D01*
X110920000Y-112970000D02*
X110920000Y-118170000D01*
X107520000Y-112970000D02*
X107520000Y-118170000D01*
X124425000Y-124110000D02*
X124425000Y-124810000D01*
X123225000Y-124810000D02*
X123225000Y-124110000D01*
X114435000Y-125055000D02*
X115435000Y-125055000D01*
X115435000Y-126405000D02*
X114435000Y-126405000D01*
X117610000Y-125055000D02*
X118610000Y-125055000D01*
X118610000Y-126405000D02*
X117610000Y-126405000D01*
X120785000Y-125055000D02*
X121785000Y-125055000D01*
X121785000Y-126405000D02*
X120785000Y-126405000D01*
X104410000Y-104926000D02*
X104410000Y-104676000D01*
X103910000Y-104676000D02*
X104410000Y-104676000D01*
X103910000Y-104926000D02*
X103910000Y-104676000D01*
X103910000Y-104926000D02*
X106910000Y-104926000D01*
X106910000Y-107926000D02*
X103910000Y-107926000D01*
X107132381Y-141708095D02*
X106132381Y-141708095D01*
X106132381Y-141327142D01*
X106180000Y-141231904D01*
X106227619Y-141184285D01*
X106322857Y-141136666D01*
X106465714Y-141136666D01*
X106560952Y-141184285D01*
X106608571Y-141231904D01*
X106656190Y-141327142D01*
X106656190Y-141708095D01*
X107132381Y-140184285D02*
X107132381Y-140755714D01*
X107132381Y-140470000D02*
X106132381Y-140470000D01*
X106275238Y-140565238D01*
X106370476Y-140660476D01*
X106418095Y-140755714D01*
X100861905Y-138882381D02*
X100861905Y-137882381D01*
X101242858Y-137882381D01*
X101338096Y-137930000D01*
X101385715Y-137977619D01*
X101433334Y-138072857D01*
X101433334Y-138215714D01*
X101385715Y-138310952D01*
X101338096Y-138358571D01*
X101242858Y-138406190D01*
X100861905Y-138406190D01*
X101814286Y-137977619D02*
X101861905Y-137930000D01*
X101957143Y-137882381D01*
X102195239Y-137882381D01*
X102290477Y-137930000D01*
X102338096Y-137977619D01*
X102385715Y-138072857D01*
X102385715Y-138168095D01*
X102338096Y-138310952D01*
X101766667Y-138882381D01*
X102385715Y-138882381D01*
X126261905Y-138882381D02*
X126261905Y-137882381D01*
X126642858Y-137882381D01*
X126738096Y-137930000D01*
X126785715Y-137977619D01*
X126833334Y-138072857D01*
X126833334Y-138215714D01*
X126785715Y-138310952D01*
X126738096Y-138358571D01*
X126642858Y-138406190D01*
X126261905Y-138406190D01*
X127166667Y-137882381D02*
X127785715Y-137882381D01*
X127452381Y-138263333D01*
X127595239Y-138263333D01*
X127690477Y-138310952D01*
X127738096Y-138358571D01*
X127785715Y-138453810D01*
X127785715Y-138691905D01*
X127738096Y-138787143D01*
X127690477Y-138834762D01*
X127595239Y-138882381D01*
X127309524Y-138882381D01*
X127214286Y-138834762D01*
X127166667Y-138787143D01*
X118570476Y-109688381D02*
X119237143Y-110688381D01*
X119237143Y-109688381D02*
X118570476Y-110688381D01*
X120141905Y-110688381D02*
X119570476Y-110688381D01*
X119856190Y-110688381D02*
X119856190Y-109688381D01*
X119760952Y-109831238D01*
X119665714Y-109926476D01*
X119570476Y-109974095D01*
M02*
