G04 #@! TF.FileFunction,Copper,L1,Top,Signal*
%FSLAX46Y46*%
G04 Gerber Fmt 4.6, Leading zero omitted, Abs format (unit mm)*
G04 Created by KiCad (PCBNEW 4.0.2+dfsg1-stable) date So 05 Jun 2016 12:59:14 CEST*
%MOMM*%
G01*
G04 APERTURE LIST*
%ADD10C,0.100000*%
%ADD11C,1.000000*%
%ADD12R,0.500000X0.900000*%
%ADD13R,0.750000X0.800000*%
%ADD14R,0.800000X0.750000*%
%ADD15R,0.797560X0.797560*%
%ADD16R,1.727200X2.032000*%
%ADD17O,1.727200X2.032000*%
%ADD18R,2.032000X1.727200*%
%ADD19O,2.032000X1.727200*%
%ADD20R,0.900000X1.700000*%
%ADD21R,0.900000X0.500000*%
%ADD22R,1.300000X0.700000*%
%ADD23R,1.200000X0.600000*%
%ADD24R,0.600000X1.200000*%
%ADD25R,1.000760X1.501140*%
%ADD26R,1.998980X2.999740*%
%ADD27R,0.600000X1.550000*%
%ADD28C,0.787400*%
%ADD29R,2.400000X1.900000*%
%ADD30O,0.600000X0.400000*%
%ADD31R,1.500000X2.400000*%
%ADD32C,0.600000*%
%ADD33C,0.250000*%
G04 APERTURE END LIST*
D10*
D11*
X127000000Y-142000000D03*
D12*
X104660000Y-112395000D03*
X106160000Y-112395000D03*
D13*
X112395000Y-118225000D03*
X112395000Y-116725000D03*
D14*
X106160000Y-116205000D03*
X104660000Y-116205000D03*
X106160000Y-118110000D03*
X104660000Y-118110000D03*
D13*
X112395000Y-113550000D03*
X112395000Y-115050000D03*
D14*
X104660000Y-108966000D03*
X106160000Y-108966000D03*
X111875000Y-128905000D03*
X110375000Y-128905000D03*
D13*
X106045000Y-133870000D03*
X106045000Y-135370000D03*
X120418860Y-133870000D03*
X120418860Y-135370000D03*
D14*
X111875000Y-133985000D03*
X110375000Y-133985000D03*
D13*
X122323860Y-133870000D03*
X122323860Y-135370000D03*
X107950000Y-133870000D03*
X107950000Y-135370000D03*
D15*
X114185700Y-123825000D03*
X115684300Y-123825000D03*
X117360700Y-123825000D03*
X118859300Y-123825000D03*
X120535700Y-123825000D03*
X122034300Y-123825000D03*
D16*
X109220000Y-140970000D03*
D17*
X111760000Y-140970000D03*
X114300000Y-140970000D03*
X116840000Y-140970000D03*
D18*
X101600000Y-135890000D03*
D19*
X101600000Y-133350000D03*
X101600000Y-130810000D03*
X101600000Y-128270000D03*
X101600000Y-125730000D03*
X101600000Y-123190000D03*
X101600000Y-120650000D03*
X101600000Y-118110000D03*
D18*
X127000000Y-135890000D03*
D19*
X127000000Y-133350000D03*
X127000000Y-130810000D03*
X127000000Y-128270000D03*
X127000000Y-125730000D03*
X127000000Y-123190000D03*
X127000000Y-120650000D03*
X127000000Y-118110000D03*
D20*
X124915000Y-109220000D03*
X127815000Y-109220000D03*
D21*
X112395000Y-111875000D03*
X112395000Y-110375000D03*
X125730000Y-112510000D03*
X125730000Y-111010000D03*
X127635000Y-111010000D03*
X127635000Y-112510000D03*
D12*
X112510000Y-125730000D03*
X111010000Y-125730000D03*
X106160000Y-125730000D03*
X104660000Y-125730000D03*
X109335000Y-125730000D03*
X107835000Y-125730000D03*
X112510000Y-123825000D03*
X111010000Y-123825000D03*
X106160000Y-123825000D03*
X104660000Y-123825000D03*
X109335000Y-123825000D03*
X107835000Y-123825000D03*
X112510000Y-121920000D03*
X111010000Y-121920000D03*
X106160000Y-121920000D03*
X104660000Y-121920000D03*
X109335000Y-121920000D03*
X107835000Y-121920000D03*
X112510000Y-120015000D03*
X111010000Y-120015000D03*
X106160000Y-120015000D03*
X104660000Y-120015000D03*
X104660000Y-114300000D03*
X106160000Y-114300000D03*
X109335000Y-120015000D03*
X107835000Y-120015000D03*
D22*
X111125000Y-130495000D03*
X111125000Y-132395000D03*
D23*
X114495000Y-114040000D03*
X114495000Y-114840000D03*
X114495000Y-115640000D03*
X114495000Y-116440000D03*
X114495000Y-117240000D03*
X114495000Y-118040000D03*
X114495000Y-118840000D03*
X114495000Y-119640000D03*
D24*
X115945000Y-121090000D03*
X116745000Y-121090000D03*
X117545000Y-121090000D03*
X118345000Y-121090000D03*
X119145000Y-121090000D03*
X119945000Y-121090000D03*
X120745000Y-121090000D03*
X121545000Y-121090000D03*
D23*
X122995000Y-119640000D03*
X122995000Y-118840000D03*
X122995000Y-118040000D03*
X122995000Y-117240000D03*
X122995000Y-116440000D03*
X122995000Y-115640000D03*
X122995000Y-114840000D03*
X122995000Y-114040000D03*
D24*
X121545000Y-112590000D03*
X120745000Y-112590000D03*
X119945000Y-112590000D03*
X119145000Y-112590000D03*
X118345000Y-112590000D03*
X117545000Y-112590000D03*
X116745000Y-112590000D03*
X115945000Y-112590000D03*
D25*
X119956580Y-132080000D03*
X121457720Y-132080000D03*
X122958860Y-132080000D03*
D26*
X121457720Y-129128520D03*
D10*
G36*
X122458480Y-130602990D02*
X121958100Y-131352290D01*
X120957340Y-131352290D01*
X120456960Y-130602990D01*
X122458480Y-130602990D01*
X122458480Y-130602990D01*
G37*
D25*
X105582720Y-132080000D03*
X107083860Y-132080000D03*
X108585000Y-132080000D03*
D26*
X107083860Y-129128520D03*
D10*
G36*
X108084620Y-130602990D02*
X107584240Y-131352290D01*
X106583480Y-131352290D01*
X106083100Y-130602990D01*
X108084620Y-130602990D01*
X108084620Y-130602990D01*
G37*
D27*
X117475000Y-128745000D03*
X116205000Y-128745000D03*
X114935000Y-128745000D03*
X113665000Y-128745000D03*
X113665000Y-134145000D03*
X114935000Y-134145000D03*
X116205000Y-134145000D03*
X117475000Y-134145000D03*
D28*
X118110000Y-107315000D03*
X119380000Y-107315000D03*
X120650000Y-107315000D03*
X118110000Y-108585000D03*
X120650000Y-108585000D03*
X119380000Y-108585000D03*
D29*
X109220000Y-117620000D03*
X109220000Y-113520000D03*
D13*
X123825000Y-123710000D03*
X123825000Y-125210000D03*
D12*
X115685000Y-125730000D03*
X114185000Y-125730000D03*
X118860000Y-125730000D03*
X117360000Y-125730000D03*
X122035000Y-125730000D03*
X120535000Y-125730000D03*
D30*
X106810000Y-105426000D03*
X106810000Y-106426000D03*
X106810000Y-107426000D03*
X104010000Y-105426000D03*
X104010000Y-106426000D03*
X104010000Y-107426000D03*
D31*
X105410000Y-106426000D03*
D11*
X111500000Y-107000000D03*
D32*
X117094000Y-135890000D03*
X114173000Y-135890000D03*
X128312120Y-121926283D03*
X123816729Y-121908866D03*
X111252000Y-112649000D03*
X107950000Y-115252500D03*
X113660830Y-112649352D03*
X111379000Y-118237000D03*
X111760000Y-120015000D03*
X111760000Y-121920000D03*
X111760000Y-123825000D03*
X111760000Y-125730000D03*
X105410000Y-114300000D03*
X107442000Y-105854500D03*
X125095000Y-115570000D03*
X117475000Y-114300000D03*
X109220000Y-133858000D03*
X104648000Y-133858000D03*
X121285000Y-124904500D03*
X120016378Y-118113008D03*
X121412000Y-118110000D03*
X124460000Y-114935000D03*
X121285000Y-114935000D03*
X115560556Y-115593674D03*
X114935000Y-109855000D03*
X115822292Y-119629310D03*
X113665000Y-127254000D03*
X116205000Y-118110000D03*
X117475000Y-127254000D03*
X103505000Y-112395000D03*
X122555000Y-122555000D03*
X118398083Y-134143400D03*
X127635000Y-113665000D03*
X123825000Y-126365000D03*
X114935000Y-124841000D03*
X114681000Y-112649000D03*
X127825500Y-107696000D03*
X119380000Y-106299000D03*
X104648000Y-117221000D03*
X111506000Y-115951000D03*
X103759000Y-125730000D03*
X103759000Y-123825000D03*
X103759000Y-121920000D03*
X103759000Y-120015000D03*
X116205000Y-130175000D03*
X123063000Y-129159000D03*
X119761000Y-129159000D03*
X121412000Y-135382000D03*
X110363000Y-134874000D03*
X108839000Y-129159000D03*
X105410000Y-129159000D03*
X107061000Y-135382000D03*
X103378000Y-105854500D03*
X105410000Y-112395000D03*
X128260450Y-115570000D03*
X125095000Y-113728500D03*
X121285000Y-113792000D03*
D33*
X106810000Y-106426000D02*
X107273157Y-106426000D01*
X107273157Y-106426000D02*
X107385010Y-106537853D01*
X107385010Y-106537853D02*
X107385010Y-107765990D01*
X107385010Y-107765990D02*
X106185000Y-108966000D01*
X106185000Y-108966000D02*
X106160000Y-108966000D01*
X106160000Y-108966000D02*
X105664000Y-108966000D01*
X105664000Y-108966000D02*
X105664000Y-111191000D01*
X105664000Y-111191000D02*
X104660000Y-112195000D01*
X104660000Y-112195000D02*
X104660000Y-112395000D01*
X104660000Y-114300000D02*
X104660000Y-112395000D01*
X104660000Y-114300000D02*
X104660000Y-114500000D01*
X104660000Y-114500000D02*
X105412500Y-115252500D01*
X107525736Y-115252500D02*
X107950000Y-115252500D01*
X105412500Y-115252500D02*
X107525736Y-115252500D01*
X112395000Y-113550000D02*
X114340802Y-113550000D01*
X114340802Y-113550000D02*
X114495000Y-113704198D01*
X114495000Y-113704198D02*
X114495000Y-114040000D01*
X117094000Y-135890000D02*
X117099263Y-135884737D01*
X117099263Y-135884737D02*
X118254688Y-135884737D01*
X118254688Y-135884737D02*
X118976530Y-135162895D01*
X118976530Y-135162895D02*
X118976530Y-126546530D01*
X118976530Y-126546530D02*
X118860000Y-126430000D01*
X112776000Y-135890000D02*
X114173000Y-135890000D01*
X112776000Y-133985000D02*
X113505000Y-133985000D01*
X111875000Y-133985000D02*
X112776000Y-133985000D01*
X112776000Y-133985000D02*
X112776000Y-135890000D01*
X101600000Y-130810000D02*
X101752400Y-130810000D01*
X101752400Y-130810000D02*
X105504376Y-127058024D01*
X105504376Y-127058024D02*
X111931978Y-127058024D01*
X111931978Y-127058024D02*
X112535001Y-126455001D01*
X123835246Y-127676198D02*
X123835246Y-133858000D01*
X123835246Y-133858000D02*
X123835246Y-138174053D01*
X122323860Y-133870000D02*
X123823246Y-133870000D01*
X123823246Y-133870000D02*
X123835246Y-133858000D01*
X123835246Y-138174053D02*
X123825000Y-138184299D01*
X121899347Y-126455001D02*
X122614049Y-126455001D01*
X122614049Y-126455001D02*
X123835246Y-127676198D01*
X122323860Y-133870000D02*
X122956655Y-133237205D01*
X122956655Y-133237205D02*
X122956655Y-132082205D01*
X122956655Y-132082205D02*
X122958860Y-132080000D01*
X121899347Y-126455001D02*
X122035000Y-126455001D01*
X122035000Y-126455001D02*
X122035000Y-125730000D01*
X128835460Y-111004542D02*
X128835460Y-121815713D01*
X128835460Y-121815713D02*
X128729837Y-121921336D01*
X128729837Y-121921336D02*
X128317067Y-121921336D01*
X128317067Y-121921336D02*
X128312120Y-121926283D01*
X123888500Y-138247799D02*
X127924195Y-138247799D01*
X127924195Y-138247799D02*
X128694679Y-137477315D01*
X128694679Y-137477315D02*
X128694679Y-121926283D01*
X128694679Y-121926283D02*
X128312120Y-121926283D01*
X123827116Y-122235384D02*
X123827116Y-121919253D01*
X123827116Y-121919253D02*
X123816729Y-121908866D01*
X123825000Y-122237500D02*
X123827116Y-122235384D01*
X123825000Y-122237500D02*
X123825000Y-120170000D01*
X123825000Y-120170000D02*
X123295000Y-119640000D01*
X123295000Y-119640000D02*
X122995000Y-119640000D01*
X123825000Y-138184299D02*
X123888500Y-138247799D01*
X115685000Y-126455001D02*
X118860000Y-126455001D01*
X118860000Y-126455001D02*
X118860000Y-125730000D01*
X112510000Y-125730000D02*
X112510000Y-126430000D01*
X112510000Y-126430000D02*
X112535001Y-126455001D01*
X112535001Y-126455001D02*
X115685000Y-126455001D01*
X115685000Y-126455001D02*
X115685000Y-125730000D01*
X123825000Y-123710000D02*
X123825000Y-122237500D01*
X120650000Y-107315000D02*
X120659824Y-107315000D01*
X127932074Y-106951572D02*
X128835460Y-107854958D01*
X120659824Y-107315000D02*
X121023252Y-106951572D01*
X121023252Y-106951572D02*
X127932074Y-106951572D01*
X128835460Y-107854958D02*
X128835460Y-111004542D01*
X128835460Y-111004542D02*
X128835460Y-111779841D01*
X128835460Y-111779841D02*
X125929026Y-111779841D01*
X125929026Y-111779841D02*
X125730000Y-111978867D01*
X125730000Y-111978867D02*
X125730000Y-112510000D01*
X118860000Y-125730000D02*
X118860000Y-126430000D01*
X118860000Y-126430000D02*
X118885001Y-126455001D01*
X118885001Y-126455001D02*
X121899347Y-126455001D01*
X111252000Y-112649000D02*
X112395000Y-112649000D01*
X113236566Y-112649352D02*
X113660830Y-112649352D01*
X112395352Y-112649352D02*
X113236566Y-112649352D01*
X112395000Y-112649000D02*
X112395352Y-112649352D01*
X112395000Y-112649000D02*
X112395000Y-111875000D01*
X112395000Y-113550000D02*
X112395000Y-112649000D01*
X112395000Y-118225000D02*
X111391000Y-118225000D01*
X111391000Y-118225000D02*
X111379000Y-118237000D01*
X112395000Y-118225000D02*
X113020000Y-118225000D01*
X113020000Y-118225000D02*
X114005000Y-117240000D01*
X114005000Y-117240000D02*
X114495000Y-117240000D01*
X112510000Y-120015000D02*
X111760000Y-120015000D01*
X112510000Y-121920000D02*
X111760000Y-121920000D01*
X112510000Y-123825000D02*
X111760000Y-123825000D01*
X112510000Y-125730000D02*
X111760000Y-125730000D01*
X101600000Y-130810000D02*
X101447600Y-130810000D01*
X111760000Y-134100000D02*
X111875000Y-133985000D01*
X113505000Y-133985000D02*
X113665000Y-134145000D01*
X105410000Y-114300000D02*
X106160000Y-114300000D01*
X116745000Y-112590000D02*
X116745000Y-111638896D01*
X116745000Y-111638896D02*
X116456103Y-111349999D01*
X116456103Y-111349999D02*
X111724999Y-111349999D01*
X111102830Y-111984681D02*
X111025259Y-112062252D01*
X106160000Y-113600000D02*
X106160000Y-114300000D01*
X111724999Y-111349999D02*
X111102830Y-111972168D01*
X111102830Y-111972168D02*
X111102830Y-111984681D01*
X111025259Y-112062252D02*
X107697748Y-112062252D01*
X107697748Y-112062252D02*
X106160000Y-113600000D01*
X106810000Y-105426000D02*
X107013500Y-105426000D01*
X107013500Y-105426000D02*
X107442000Y-105854500D01*
X106810000Y-105426000D02*
X106823458Y-105426000D01*
X125095000Y-115570000D02*
X126222637Y-115570000D01*
X127703021Y-122130384D02*
X128291010Y-122718373D01*
X127152400Y-133350000D02*
X127000000Y-133350000D01*
X128291010Y-122718373D02*
X128291010Y-132211390D01*
X128333500Y-121079137D02*
X127703021Y-121709616D01*
X126222637Y-115570000D02*
X128333500Y-117680863D01*
X128333500Y-117680863D02*
X128333500Y-121079137D01*
X127703021Y-121709616D02*
X127703021Y-122130384D01*
X128291010Y-132211390D02*
X127152400Y-133350000D01*
X116745000Y-112590000D02*
X116745000Y-113570000D01*
X116745000Y-113570000D02*
X117475000Y-114300000D01*
X109220000Y-113520000D02*
X109220000Y-115443000D01*
X109220000Y-115443000D02*
X108458000Y-116205000D01*
X108458000Y-116205000D02*
X106160000Y-116205000D01*
X114495000Y-114840000D02*
X113645000Y-114840000D01*
X113645000Y-114840000D02*
X113030001Y-114225001D01*
X113030001Y-114225001D02*
X111375001Y-114225001D01*
X111375001Y-114225001D02*
X110670000Y-113520000D01*
X110670000Y-113520000D02*
X109220000Y-113520000D01*
X109220000Y-117620000D02*
X106650000Y-117620000D01*
X106650000Y-117620000D02*
X106160000Y-118110000D01*
X114495000Y-115640000D02*
X113871954Y-115640000D01*
X113871954Y-115640000D02*
X113219101Y-116292853D01*
X113219101Y-116292853D02*
X113219101Y-117170901D01*
X113219101Y-117170901D02*
X112904164Y-117485838D01*
X112904164Y-117485838D02*
X110804162Y-117485838D01*
X110804162Y-117485838D02*
X110670000Y-117620000D01*
X110670000Y-117620000D02*
X109220000Y-117620000D01*
X109220000Y-133858000D02*
X107962000Y-133858000D01*
X107962000Y-133858000D02*
X107950000Y-133870000D01*
X101600000Y-133350000D02*
X104140000Y-133350000D01*
X104140000Y-133350000D02*
X104648000Y-133858000D01*
X111875000Y-128905000D02*
X111900000Y-128905000D01*
X111900000Y-128905000D02*
X113170000Y-130175000D01*
X113170000Y-130175000D02*
X114935000Y-130175000D01*
X114935000Y-130175000D02*
X114935000Y-128745000D01*
X109870430Y-129794000D02*
X110961000Y-129794000D01*
X110961000Y-129794000D02*
X111850000Y-128905000D01*
X111850000Y-128905000D02*
X111875000Y-128905000D01*
X108585000Y-132080000D02*
X108585000Y-131079430D01*
X108585000Y-131079430D02*
X109870430Y-129794000D01*
X108585000Y-132080000D02*
X108585000Y-133235000D01*
X108585000Y-133235000D02*
X107950000Y-133870000D01*
X109220000Y-140970000D02*
X109220000Y-141122400D01*
X109220000Y-141122400D02*
X110358610Y-142261010D01*
X110358610Y-142261010D02*
X117834990Y-142261010D01*
X117834990Y-142261010D02*
X119439860Y-140656140D01*
X105156000Y-136398000D02*
X105156000Y-136753600D01*
X105156000Y-136753600D02*
X109220000Y-140817600D01*
X109220000Y-140817600D02*
X109220000Y-140970000D01*
X119439860Y-140656140D02*
X119439860Y-134874000D01*
X119439860Y-134874000D02*
X120418860Y-133895000D01*
X120418860Y-133895000D02*
X120418860Y-133870000D01*
X101600000Y-135890000D02*
X102866000Y-135890000D01*
X102866000Y-135890000D02*
X103374000Y-136398000D01*
X103374000Y-136398000D02*
X105156000Y-136398000D01*
X105156000Y-136398000D02*
X105156000Y-134784000D01*
X105156000Y-134784000D02*
X106045000Y-133895000D01*
X106045000Y-133895000D02*
X106045000Y-133870000D01*
X119956580Y-132080000D02*
X119956580Y-133407720D01*
X119956580Y-133407720D02*
X120418860Y-133870000D01*
X105582720Y-132080000D02*
X105582720Y-133407720D01*
X105582720Y-133407720D02*
X106045000Y-133870000D01*
X118859300Y-123825000D02*
X118859300Y-123176220D01*
X118859300Y-123176220D02*
X119945000Y-122090520D01*
X119945000Y-122090520D02*
X119945000Y-121940000D01*
X119945000Y-121940000D02*
X119945000Y-121090000D01*
X122034300Y-123825000D02*
X122034300Y-123176220D01*
X122034300Y-123176220D02*
X120745000Y-121886920D01*
X120745000Y-121886920D02*
X120745000Y-121090000D01*
X116205000Y-134145000D02*
X116205000Y-136906000D01*
X116205000Y-136906000D02*
X114300000Y-138811000D01*
X114300000Y-138811000D02*
X114300000Y-140970000D01*
X111125000Y-130495000D02*
X112855002Y-130495000D01*
X112855002Y-130495000D02*
X116205000Y-133844998D01*
X116205000Y-133844998D02*
X116205000Y-134145000D01*
X114935000Y-134145000D02*
X114935000Y-136372600D01*
X114935000Y-136372600D02*
X111760000Y-139547600D01*
X111760000Y-139547600D02*
X111760000Y-140970000D01*
X111125000Y-132395000D02*
X113660000Y-132395000D01*
X113660000Y-132395000D02*
X114935000Y-133670000D01*
X114935000Y-133670000D02*
X114935000Y-134145000D01*
X101600000Y-125730000D02*
X102663012Y-125730000D01*
X102663012Y-125730000D02*
X103591026Y-126658014D01*
X103591026Y-126658014D02*
X106679254Y-126658014D01*
X106679254Y-126658014D02*
X107607268Y-125730000D01*
X107607268Y-125730000D02*
X107835000Y-125730000D01*
X101600000Y-123190000D02*
X101771765Y-123190000D01*
X101771765Y-123190000D02*
X103373748Y-124791983D01*
X103373748Y-124791983D02*
X106368017Y-124791983D01*
X107335000Y-123825000D02*
X107835000Y-123825000D01*
X106368017Y-124791983D02*
X107335000Y-123825000D01*
X101600000Y-120650000D02*
X102866000Y-120650000D01*
X102866000Y-120650000D02*
X103156671Y-120940671D01*
X103156671Y-120940671D02*
X106355671Y-120940671D01*
X107335000Y-121920000D02*
X107835000Y-121920000D01*
X106355671Y-120940671D02*
X107335000Y-121920000D01*
X101600000Y-118110000D02*
X102866000Y-118110000D01*
X102866000Y-118110000D02*
X103776894Y-119020894D01*
X103776894Y-119020894D02*
X106340894Y-119020894D01*
X106340894Y-119020894D02*
X107335000Y-120015000D01*
X107335000Y-120015000D02*
X107835000Y-120015000D01*
X127000000Y-128270000D02*
X126581002Y-128270000D01*
X126581002Y-128270000D02*
X124475001Y-126163999D01*
X124475001Y-124589999D02*
X124270003Y-124385001D01*
X124475001Y-126163999D02*
X124475001Y-124589999D01*
X124270003Y-124385001D02*
X123229999Y-124385001D01*
X123229999Y-124385001D02*
X123174999Y-124330001D01*
X123174999Y-124330001D02*
X123174999Y-121630225D01*
X123174999Y-121630225D02*
X122120001Y-120575227D01*
X122120001Y-120575227D02*
X122120001Y-120269999D01*
X122119999Y-117265001D02*
X122145000Y-117240000D01*
X122120001Y-120269999D02*
X122119999Y-120269997D01*
X122119999Y-120269997D02*
X122119999Y-117265001D01*
X122145000Y-117240000D02*
X122995000Y-117240000D01*
X122995000Y-118040000D02*
X123845000Y-118040000D01*
X123845000Y-118040000D02*
X124958000Y-119153000D01*
X124958000Y-119153000D02*
X124958000Y-123840400D01*
X124958000Y-123840400D02*
X126847600Y-125730000D01*
X126847600Y-125730000D02*
X127000000Y-125730000D01*
X117545000Y-121090000D02*
X117545000Y-122716738D01*
X119686114Y-123382024D02*
X119993907Y-123074231D01*
X117545000Y-122716738D02*
X118121169Y-123292907D01*
X118121169Y-123292907D02*
X118121169Y-124418310D01*
X119686114Y-124334046D02*
X119686114Y-123382024D01*
X118121169Y-124418310D02*
X118278407Y-124575548D01*
X118278407Y-124575548D02*
X119444612Y-124575548D01*
X121077493Y-123074231D02*
X121285000Y-123281738D01*
X119444612Y-124575548D02*
X119686114Y-124334046D01*
X121285000Y-123281738D02*
X121285000Y-124904500D01*
X119993907Y-123074231D02*
X121077493Y-123074231D01*
X119716379Y-118413007D02*
X120016378Y-118113008D01*
X118345000Y-119784386D02*
X119716379Y-118413007D01*
X118345000Y-121090000D02*
X118345000Y-119784386D01*
X119145000Y-121090000D02*
X119145000Y-120240000D01*
X119145000Y-120240000D02*
X121275000Y-118110000D01*
X121275000Y-118110000D02*
X121412000Y-118110000D01*
X119126000Y-121071000D02*
X119145000Y-121090000D01*
X124956000Y-111010000D02*
X124460000Y-111506000D01*
X124460000Y-111506000D02*
X124460000Y-114935000D01*
X125730000Y-111010000D02*
X124956000Y-111010000D01*
X114495000Y-118040000D02*
X115423998Y-118040000D01*
X115423998Y-118040000D02*
X118528998Y-114935000D01*
X118528998Y-114935000D02*
X121285000Y-114935000D01*
X127635000Y-111010000D02*
X125730000Y-111010000D01*
X124915000Y-109220000D02*
X125615000Y-109220000D01*
X125615000Y-109220000D02*
X125730000Y-109335000D01*
X125730000Y-109335000D02*
X125730000Y-110510000D01*
X125730000Y-110510000D02*
X125730000Y-111010000D01*
X115560556Y-116017938D02*
X115560556Y-115593674D01*
X115560556Y-116224444D02*
X115560556Y-116017938D01*
X115345000Y-116440000D02*
X115560556Y-116224444D01*
X114495000Y-116440000D02*
X115345000Y-116440000D01*
X118110000Y-107315000D02*
X117420859Y-108004141D01*
X117420859Y-108004141D02*
X116214519Y-108004141D01*
X116214519Y-108004141D02*
X115561974Y-108656686D01*
X115561974Y-108656686D02*
X115561974Y-109228026D01*
X115561974Y-109228026D02*
X114935000Y-109855000D01*
X114935000Y-109855000D02*
X114415000Y-110375000D01*
X114415000Y-110375000D02*
X112395000Y-110375000D01*
X113095000Y-110375000D02*
X112395000Y-110375000D01*
X113511919Y-123206219D02*
X113566919Y-123151219D01*
X113511919Y-124018083D02*
X113511919Y-123206219D01*
X111989999Y-124550001D02*
X112980001Y-124550001D01*
X116745000Y-121940000D02*
X116745000Y-121090000D01*
X111010000Y-125530000D02*
X111989999Y-124550001D01*
X113566919Y-123151219D02*
X115533781Y-123151219D01*
X112980001Y-124550001D02*
X113511919Y-124018083D01*
X115533781Y-123151219D02*
X116745000Y-121940000D01*
X111010000Y-125730000D02*
X111010000Y-125530000D01*
X109335000Y-125730000D02*
X111010000Y-125730000D01*
X106160000Y-125730000D02*
X106660000Y-125730000D01*
X106660000Y-125730000D02*
X107385001Y-125004999D01*
X107385001Y-125004999D02*
X108809999Y-125004999D01*
X109335000Y-125530000D02*
X109335000Y-125730000D01*
X108809999Y-125004999D02*
X109335000Y-125530000D01*
X111010000Y-123825000D02*
X111010000Y-123625000D01*
X111010000Y-123625000D02*
X111883792Y-122751208D01*
X111883792Y-122751208D02*
X113733792Y-122751208D01*
X113733792Y-122751208D02*
X115395000Y-121090000D01*
X115395000Y-121090000D02*
X115945000Y-121090000D01*
X109335000Y-123825000D02*
X111010000Y-123825000D01*
X106160000Y-123825000D02*
X106660000Y-123825000D01*
X106660000Y-123825000D02*
X107385001Y-123099999D01*
X107385001Y-123099999D02*
X108809999Y-123099999D01*
X108809999Y-123099999D02*
X109335000Y-123625000D01*
X109335000Y-123625000D02*
X109335000Y-123825000D01*
X114495000Y-119640000D02*
X114495000Y-120190000D01*
X114495000Y-120190000D02*
X113722225Y-120962775D01*
X111592281Y-120962775D02*
X111010000Y-121545056D01*
X111010000Y-121545056D02*
X111010000Y-121920000D01*
X113722225Y-120962775D02*
X111592281Y-120962775D01*
X109335000Y-121920000D02*
X111010000Y-121920000D01*
X106160000Y-121920000D02*
X106660000Y-121920000D01*
X106660000Y-121920000D02*
X107385001Y-122645001D01*
X107385001Y-122645001D02*
X108809999Y-122645001D01*
X109335000Y-122120000D02*
X109335000Y-121920000D01*
X108809999Y-122645001D02*
X109335000Y-122120000D01*
X114495000Y-118840000D02*
X113645000Y-118840000D01*
X113645000Y-118840000D02*
X113366556Y-119118444D01*
X113366556Y-119118444D02*
X111682741Y-119118444D01*
X111682741Y-119118444D02*
X111010000Y-119791185D01*
X111010000Y-119791185D02*
X111010000Y-120015000D01*
X109335000Y-120015000D02*
X111010000Y-120015000D01*
X106160000Y-120015000D02*
X106660000Y-120015000D01*
X106660000Y-120015000D02*
X107385001Y-120740001D01*
X107385001Y-120740001D02*
X108809999Y-120740001D01*
X109335000Y-120215000D02*
X109335000Y-120015000D01*
X108809999Y-120740001D02*
X109335000Y-120215000D01*
X116122291Y-119329311D02*
X115822292Y-119629310D01*
X122995000Y-116440000D02*
X119011602Y-116440000D01*
X119011602Y-116440000D02*
X116122291Y-119329311D01*
X113665000Y-128745000D02*
X113665000Y-127254000D01*
X116205000Y-118110000D02*
X118675000Y-115640000D01*
X118675000Y-115640000D02*
X122995000Y-115640000D01*
X117475000Y-128745000D02*
X117475000Y-127254000D01*
X122995000Y-114840000D02*
X122145000Y-114840000D01*
X122145000Y-114840000D02*
X122119999Y-114814999D01*
X122119999Y-114814999D02*
X122119999Y-113410003D01*
X122120001Y-111325001D02*
X119773699Y-108978699D01*
X122119999Y-113410003D02*
X122120001Y-113410001D01*
X122120001Y-113410001D02*
X122120001Y-111325001D01*
X119773699Y-108978699D02*
X119380000Y-108585000D01*
X122995000Y-114040000D02*
X122995000Y-110930000D01*
X122995000Y-110930000D02*
X120650000Y-108585000D01*
X104010000Y-106426000D02*
X103542212Y-106426000D01*
X103542212Y-106426000D02*
X103434990Y-106533222D01*
X103434990Y-106533222D02*
X103434990Y-107765990D01*
X103434990Y-107765990D02*
X104635000Y-108966000D01*
X104635000Y-108966000D02*
X104660000Y-108966000D01*
X104660000Y-108966000D02*
X105156000Y-108966000D01*
X105156000Y-108966000D02*
X105156000Y-111125000D01*
X104611001Y-111669999D02*
X104230001Y-111669999D01*
X105156000Y-111125000D02*
X104611001Y-111669999D01*
X104230001Y-111669999D02*
X103505000Y-112395000D01*
X121545000Y-121545000D02*
X122555000Y-122555000D01*
X117475000Y-134145000D02*
X118396483Y-134145000D01*
X118396483Y-134145000D02*
X118398083Y-134143400D01*
X121545000Y-121090000D02*
X121545000Y-121545000D01*
X121457720Y-132080000D02*
X121457720Y-130977640D01*
X107083860Y-132080000D02*
X107083860Y-130977640D01*
X107083860Y-129128520D02*
X107083860Y-132080000D01*
X121457720Y-129128520D02*
X121457720Y-132080000D01*
X127635000Y-112510000D02*
X127635000Y-113665000D01*
X123825000Y-125210000D02*
X123825000Y-126365000D01*
X115684300Y-123825000D02*
X115684300Y-124091700D01*
X115684300Y-124091700D02*
X114935000Y-124841000D01*
X115945000Y-112590000D02*
X114740000Y-112590000D01*
X114740000Y-112590000D02*
X114681000Y-112649000D01*
X127825500Y-107696000D02*
X127825500Y-109209500D01*
X127825500Y-109209500D02*
X127815000Y-109220000D01*
X119380000Y-107315000D02*
X119380000Y-106299000D01*
X104660000Y-118110000D02*
X104660000Y-117233000D01*
X104660000Y-117233000D02*
X104648000Y-117221000D01*
X104660000Y-116205000D02*
X104660000Y-117209000D01*
X104660000Y-117209000D02*
X104648000Y-117221000D01*
X112395000Y-115951000D02*
X112395000Y-115050000D01*
X112395000Y-116725000D02*
X112395000Y-115951000D01*
X112395000Y-115951000D02*
X111506000Y-115951000D01*
X104660000Y-125730000D02*
X103759000Y-125730000D01*
X104660000Y-123825000D02*
X103759000Y-123825000D01*
X104660000Y-121920000D02*
X103759000Y-121920000D01*
X104660000Y-120015000D02*
X103759000Y-120015000D01*
X116205000Y-128745000D02*
X116205000Y-130175000D01*
X121457720Y-129128520D02*
X123032520Y-129128520D01*
X123032520Y-129128520D02*
X123063000Y-129159000D01*
X121457720Y-129128520D02*
X119791480Y-129128520D01*
X119791480Y-129128520D02*
X119761000Y-129159000D01*
X122323860Y-135370000D02*
X121424000Y-135370000D01*
X121424000Y-135370000D02*
X121412000Y-135382000D01*
X120418860Y-135370000D02*
X121400000Y-135370000D01*
X121400000Y-135370000D02*
X121412000Y-135382000D01*
X121457720Y-132080000D02*
X121457720Y-135336280D01*
X121457720Y-135336280D02*
X121412000Y-135382000D01*
X110375000Y-133985000D02*
X110375000Y-134862000D01*
X110375000Y-134862000D02*
X110363000Y-134874000D01*
X110375000Y-128905000D02*
X109093000Y-128905000D01*
X109093000Y-128905000D02*
X108839000Y-129159000D01*
X107083860Y-129128520D02*
X108808520Y-129128520D01*
X108808520Y-129128520D02*
X108839000Y-129159000D01*
X107083860Y-129128520D02*
X105440480Y-129128520D01*
X105440480Y-129128520D02*
X105410000Y-129159000D01*
X106045000Y-135370000D02*
X107049000Y-135370000D01*
X107049000Y-135370000D02*
X107061000Y-135382000D01*
X107950000Y-135370000D02*
X107073000Y-135370000D01*
X107073000Y-135370000D02*
X107061000Y-135382000D01*
X107083860Y-132080000D02*
X107083860Y-135359140D01*
X107083860Y-135359140D02*
X107061000Y-135382000D01*
X104010000Y-105426000D02*
X103806500Y-105426000D01*
X103806500Y-105426000D02*
X103378000Y-105854500D01*
X105410000Y-112395000D02*
X106160000Y-112395000D01*
X107392759Y-111662241D02*
X106660000Y-112395000D01*
X106660000Y-112395000D02*
X106160000Y-112395000D01*
X104010000Y-105426000D02*
X103870000Y-105426000D01*
X125095000Y-113728500D02*
X126418950Y-113728500D01*
X126418950Y-113728500D02*
X128260450Y-115570000D01*
X117545000Y-112590000D02*
X117545000Y-113440000D01*
X117897000Y-113792000D02*
X121285000Y-113792000D01*
X117545000Y-113440000D02*
X117897000Y-113792000D01*
X117545000Y-112590000D02*
X117545000Y-111528607D01*
X117545000Y-111528607D02*
X116966381Y-110949988D01*
X116966381Y-110949988D02*
X111559310Y-110949988D01*
X111559310Y-110949988D02*
X110847057Y-111662241D01*
X110847057Y-111662241D02*
X107392759Y-111662241D01*
X114185000Y-125730000D02*
X114185000Y-123825700D01*
X114185000Y-123825700D02*
X114185700Y-123825000D01*
X117360000Y-125730000D02*
X117360000Y-123825700D01*
X117360000Y-123825700D02*
X117360700Y-123825000D01*
X120535000Y-125730000D02*
X120535000Y-123825700D01*
X120535000Y-123825700D02*
X120535700Y-123825000D01*
M02*
